<svg width="392" height="192" viewBox="0 0 392 192" fill="none" xmlns="http://www.w3.org/2000/svg">
<g filter="url(#filter0_d_228_2680)">
<g clip-path="url(#clip0_228_2680)">
<rect x="10" y="9" width="372" height="172" rx="10" fill="#009788"/>
<path fill-rule="evenodd" clip-rule="evenodd" d="M187 26.5903L182 31.4807L187 36.5928V45H195.223L199.481 49.3532L203.931 45H212V37.1083L217.353 31.8724L212 26.3993V20H205.741L199.872 14L193.738 20H187V26.5903Z" fill="white"/>
<path fill-rule="evenodd" clip-rule="evenodd" d="M187 26.5903L182 31.4807L187 36.5928V45H195.223L199.481 49.3532L203.931 45H212V37.1083L217.353 31.8724L212 26.3993V20H205.741L199.872 14L193.738 20H187V26.5903Z" fill="white"/>
<rect x="217" y="9" width="5" height="5" fill="white"/>
<rect x="177" y="49" width="5" height="5" fill="white"/>
<rect x="177" y="49" width="5" height="5" fill="white"/>
<rect x="177" y="9" width="5" height="5" fill="white"/>
<rect x="177" y="9" width="5" height="5" fill="white"/>
<rect x="217" y="49" width="5" height="5" fill="white"/>
<path d="M187 14V9H194.2L199 11.5L194.2 14H187Z" fill="white"/>
<path d="M187 14V9H194.2L199 11.5L194.2 14H187Z" fill="white"/>
<path d="M187 54V49H194.2L199 51.5L194.2 54H187Z" fill="white"/>
<path d="M187 54V49H194.2L199 51.5L194.2 54H187Z" fill="white"/>
<path d="M182 45H177V37.2L179.5 32L182 37.2V45Z" fill="white"/>
<path d="M182 45H177V37.2L179.5 32L182 37.2V45Z" fill="white"/>
<path d="M222 45H217V37.2L219.5 32L222 37.2V45Z" fill="white"/>
<path d="M212 9V14L204.8 14L200 11.5L204.8 9H212Z" fill="white"/>
<path d="M212 9V14L204.8 14L200 11.5L204.8 9H212Z" fill="white"/>
<path d="M212 49V54H204.8L200 51.5L204.8 49H212Z" fill="white"/>
<path d="M212 49V54H204.8L200 51.5L204.8 49H212Z" fill="white"/>
<path d="M177 20H182V26.6L179.5 31L177 26.6V20Z" fill="white"/>
<path d="M177 20H182V26.6L179.5 31L177 26.6V20Z" fill="white"/>
<path d="M217 20H222V26.6L219.5 31L217 26.6V20Z" fill="white"/>
<path fill-rule="evenodd" clip-rule="evenodd" d="M187 65.5903L182 70.4807L187 75.5928V84H195.223L199.481 88.3532L203.931 84H212V76.1083L217.353 70.8724L212 65.3993V59H205.741L199.872 53L193.738 59H187V65.5903Z" fill="white"/>
<path fill-rule="evenodd" clip-rule="evenodd" d="M187 65.5903L182 70.4807L187 75.5928V84H195.223L199.481 88.3532L203.931 84H212V76.1083L217.353 70.8724L212 65.3993V59H205.741L199.872 53L193.738 59H187V65.5903Z" fill="white"/>
<rect x="177" y="88" width="5" height="5" fill="white"/>
<rect x="177" y="88" width="5" height="5" fill="white"/>
<rect x="217" y="88" width="5" height="5" fill="white"/>
<path d="M187 93V88H194.2L199 90.5L194.2 93H187Z" fill="white"/>
<path d="M187 93V88H194.2L199 90.5L194.2 93H187Z" fill="white"/>
<path d="M182 84H177V76.2L179.5 71L182 76.2V84Z" fill="white"/>
<path d="M182 84H177V76.2L179.5 71L182 76.2V84Z" fill="white"/>
<path d="M222 84H217V76.2L219.5 71L222 76.2V84Z" fill="white"/>
<path d="M212 88V93H204.8L200 90.5L204.8 88H212Z" fill="white"/>
<path d="M212 88V93H204.8L200 90.5L204.8 88H212Z" fill="white"/>
<path d="M177 59H182V65.6L179.5 70L177 65.6V59Z" fill="white"/>
<path d="M177 59H182V65.6L179.5 70L177 65.6V59Z" fill="white"/>
<path d="M217 59H222V65.6L219.5 70L217 65.6V59Z" fill="white"/>
<path fill-rule="evenodd" clip-rule="evenodd" d="M187 105.59L182 110.481L187 115.593V124H195.223L199.481 128.353L203.931 124H212V116.108L217.353 110.872L212 105.399V99H205.741L199.872 93L193.738 99H187V105.59Z" fill="white"/>
<path fill-rule="evenodd" clip-rule="evenodd" d="M187 105.59L182 110.481L187 115.593V124H195.223L199.481 128.353L203.931 124H212V116.108L217.353 110.872L212 105.399V99H205.741L199.872 93L193.738 99H187V105.59Z" fill="white"/>
<rect x="177" y="128" width="5" height="5" fill="white"/>
<rect x="177" y="128" width="5" height="5" fill="white"/>
<rect x="217" y="128" width="5" height="5" fill="white"/>
<path d="M187 133V128H194.2L199 130.5L194.2 133H187Z" fill="white"/>
<path d="M187 133V128H194.2L199 130.5L194.2 133H187Z" fill="white"/>
<path d="M182 124H177V116.2L179.5 111L182 116.2V124Z" fill="white"/>
<path d="M182 124H177V116.2L179.5 111L182 116.2V124Z" fill="white"/>
<path d="M222 124H217V116.2L219.5 111L222 116.2V124Z" fill="white"/>
<path d="M212 128V133H204.8L200 130.5L204.8 128H212Z" fill="white"/>
<path d="M212 128V133H204.8L200 130.5L204.8 128H212Z" fill="white"/>
<path d="M177 99H182V105.6L179.5 110L177 105.6V99Z" fill="white"/>
<path d="M177 99H182V105.6L179.5 110L177 105.6V99Z" fill="white"/>
<path d="M217 99H222V105.6L219.5 110L217 105.6V99Z" fill="white"/>
<path fill-rule="evenodd" clip-rule="evenodd" d="M187 144.59L182 149.481L187 154.593V163H195.223L199.481 167.353L203.931 163H212V155.108L217.353 149.872L212 144.399V138H205.741L199.872 132L193.738 138H187V144.59Z" fill="white"/>
<path fill-rule="evenodd" clip-rule="evenodd" d="M187 144.59L182 149.481L187 154.593V163H195.223L199.481 167.353L203.931 163H212V155.108L217.353 149.872L212 144.399V138H205.741L199.872 132L193.738 138H187V144.59Z" fill="white"/>
<rect x="177" y="167" width="5" height="5" fill="white"/>
<rect x="177" y="167" width="5" height="5" fill="white"/>
<rect x="217" y="167" width="5" height="5" fill="white"/>
<path d="M187 172V167H194.2L199 169.5L194.2 172H187Z" fill="white"/>
<path d="M187 172V167H194.2L199 169.5L194.2 172H187Z" fill="white"/>
<path d="M182 163H177V155.2L179.5 150L182 155.2V163Z" fill="white"/>
<path d="M182 163H177V155.2L179.5 150L182 155.2V163Z" fill="white"/>
<path d="M222 163H217V155.2L219.5 150L222 155.2V163Z" fill="white"/>
<path d="M212 167V172H204.8L200 169.5L204.8 167H212Z" fill="white"/>
<path d="M212 167V172H204.8L200 169.5L204.8 167H212Z" fill="white"/>
<path d="M177 138H182V144.6L179.5 149L177 144.6V138Z" fill="white"/>
<path d="M177 138H182V144.6L179.5 149L177 144.6V138Z" fill="white"/>
<path d="M217 138H222V144.6L219.5 149L217 144.6V138Z" fill="white"/>
<path fill-rule="evenodd" clip-rule="evenodd" d="M187 183.59L182 188.481L187 193.593V202H195.223L199.481 206.353L203.931 202H212V194.108L217.353 188.872L212 183.399V177H205.741L199.872 171L193.738 177H187V183.59Z" fill="white"/>
<path fill-rule="evenodd" clip-rule="evenodd" d="M187 183.59L182 188.481L187 193.593V202H195.223L199.481 206.353L203.931 202H212V194.108L217.353 188.872L212 183.399V177H205.741L199.872 171L193.738 177H187V183.59Z" fill="white"/>
<path d="M177 177H182V183.6L179.5 188L177 183.6V177Z" fill="white"/>
<path d="M177 177H182V183.6L179.5 188L177 183.6V177Z" fill="white"/>
<path d="M217 177H222V183.6L219.5 188L217 183.6V177Z" fill="white"/>
<path fill-rule="evenodd" clip-rule="evenodd" d="M227 26.5903L222 31.4807L227 36.5928V45H235.223L239.481 49.3532L243.931 45H252V37.1083L257.353 31.8724L252 26.3993V20H245.741L239.872 14L233.738 20H227V26.5903Z" fill="white"/>
<path fill-rule="evenodd" clip-rule="evenodd" d="M227 26.5903L222 31.4807L227 36.5928V45H235.223L239.481 49.3532L243.931 45H252V37.1083L257.353 31.8724L252 26.3993V20H245.741L239.872 14L233.738 20H227V26.5903Z" fill="white"/>
<rect x="257" y="9" width="5" height="5" fill="white"/>
<rect x="257" y="49" width="5" height="5" fill="white"/>
<path d="M227 14V9H234.2L239 11.5L234.2 14H227Z" fill="white"/>
<path d="M227 14V9H234.2L239 11.5L234.2 14H227Z" fill="white"/>
<path d="M227 54V49H234.2L239 51.5L234.2 54H227Z" fill="white"/>
<path d="M227 54V49H234.2L239 51.5L234.2 54H227Z" fill="white"/>
<path d="M262 45H257V37.2L259.5 32L262 37.2V45Z" fill="white"/>
<path d="M252 9V14L244.8 14L240 11.5L244.8 9H252Z" fill="white"/>
<path d="M252 9V14L244.8 14L240 11.5L244.8 9H252Z" fill="white"/>
<path d="M252 49V54H244.8L240 51.5L244.8 49H252Z" fill="white"/>
<path d="M252 49V54H244.8L240 51.5L244.8 49H252Z" fill="white"/>
<path d="M257 20H262V26.6L259.5 31L257 26.6V20Z" fill="white"/>
<path fill-rule="evenodd" clip-rule="evenodd" d="M267 26.5903L262 31.4807L267 36.5928V45H275.223L279.481 49.3532L283.931 45H292V37.1083L297.353 31.8724L292 26.3993V20H285.741L279.872 14L273.738 20H267V26.5903Z" fill="white"/>
<path fill-rule="evenodd" clip-rule="evenodd" d="M267 26.5903L262 31.4807L267 36.5928V45H275.223L279.481 49.3532L283.931 45H292V37.1083L297.353 31.8724L292 26.3993V20H285.741L279.872 14L273.738 20H267V26.5903Z" fill="white"/>
<rect x="297" y="9" width="5" height="5" fill="white"/>
<rect x="297" y="49" width="5" height="5" fill="white"/>
<path d="M267 14V9H274.2L279 11.5L274.2 14H267Z" fill="white"/>
<path d="M267 14V9H274.2L279 11.5L274.2 14H267Z" fill="white"/>
<path d="M267 54V49H274.2L279 51.5L274.2 54H267Z" fill="white"/>
<path d="M267 54V49H274.2L279 51.5L274.2 54H267Z" fill="white"/>
<path d="M302 45H297V37.2L299.5 32L302 37.2V45Z" fill="white"/>
<path d="M292 9V14L284.8 14L280 11.5L284.8 9H292Z" fill="white"/>
<path d="M292 9V14L284.8 14L280 11.5L284.8 9H292Z" fill="white"/>
<path d="M292 49V54H284.8L280 51.5L284.8 49H292Z" fill="white"/>
<path d="M292 49V54H284.8L280 51.5L284.8 49H292Z" fill="white"/>
<path d="M297 20H302V26.6L299.5 31L297 26.6V20Z" fill="white"/>
<path fill-rule="evenodd" clip-rule="evenodd" d="M307 26.5903L302 31.4807L307 36.5928V45H315.223L319.481 49.3532L323.931 45H332V37.1083L337.353 31.8724L332 26.3993V20H325.741L319.872 14L313.738 20H307V26.5903Z" fill="white"/>
<path fill-rule="evenodd" clip-rule="evenodd" d="M307 26.5903L302 31.4807L307 36.5928V45H315.223L319.481 49.3532L323.931 45H332V37.1083L337.353 31.8724L332 26.3993V20H325.741L319.872 14L313.738 20H307V26.5903Z" fill="white"/>
<rect x="337" y="9" width="5" height="5" fill="white"/>
<rect x="337" y="49" width="5" height="5" fill="white"/>
<path d="M307 14V9H314.2L319 11.5L314.2 14H307Z" fill="white"/>
<path d="M307 14V9H314.2L319 11.5L314.2 14H307Z" fill="white"/>
<path d="M307 54V49H314.2L319 51.5L314.2 54H307Z" fill="white"/>
<path d="M307 54V49H314.2L319 51.5L314.2 54H307Z" fill="white"/>
<path d="M342 45H337V37.2L339.5 32L342 37.2V45Z" fill="white"/>
<path d="M332 9V14L324.8 14L320 11.5L324.8 9H332Z" fill="white"/>
<path d="M332 9V14L324.8 14L320 11.5L324.8 9H332Z" fill="white"/>
<path d="M332 49V54H324.8L320 51.5L324.8 49H332Z" fill="white"/>
<path d="M332 49V54H324.8L320 51.5L324.8 49H332Z" fill="white"/>
<path d="M337 20H342V26.6L339.5 31L337 26.6V20Z" fill="white"/>
<path fill-rule="evenodd" clip-rule="evenodd" d="M227 65.5903L222 70.4807L227 75.5928V84H235.223L239.481 88.3532L243.931 84H252V76.1083L257.353 70.8724L252 65.3993V59H245.741L239.872 53L233.738 59H227V65.5903Z" fill="white"/>
<path fill-rule="evenodd" clip-rule="evenodd" d="M227 65.5903L222 70.4807L227 75.5928V84H235.223L239.481 88.3532L243.931 84H252V76.1083L257.353 70.8724L252 65.3993V59H245.741L239.872 53L233.738 59H227V65.5903Z" fill="white"/>
<rect x="257" y="88" width="5" height="5" fill="white"/>
<path d="M227 93V88H234.2L239 90.5L234.2 93H227Z" fill="white"/>
<path d="M227 93V88H234.2L239 90.5L234.2 93H227Z" fill="white"/>
<path d="M262 84H257V76.2L259.5 71L262 76.2V84Z" fill="white"/>
<path d="M252 88V93H244.8L240 90.5L244.8 88H252Z" fill="white"/>
<path d="M252 88V93H244.8L240 90.5L244.8 88H252Z" fill="white"/>
<path d="M257 59H262V65.6L259.5 70L257 65.6V59Z" fill="white"/>
<path fill-rule="evenodd" clip-rule="evenodd" d="M227 105.59L222 110.481L227 115.593V124H235.223L239.481 128.353L243.931 124H252V116.108L257.353 110.872L252 105.399V99H245.741L239.872 93L233.738 99H227V105.59Z" fill="white"/>
<path fill-rule="evenodd" clip-rule="evenodd" d="M227 105.59L222 110.481L227 115.593V124H235.223L239.481 128.353L243.931 124H252V116.108L257.353 110.872L252 105.399V99H245.741L239.872 93L233.738 99H227V105.59Z" fill="white"/>
<rect x="257" y="128" width="5" height="5" fill="white"/>
<path d="M227 133V128H234.2L239 130.5L234.2 133H227Z" fill="white"/>
<path d="M227 133V128H234.2L239 130.5L234.2 133H227Z" fill="white"/>
<path d="M262 124H257V116.2L259.5 111L262 116.2V124Z" fill="white"/>
<path d="M252 128V133H244.8L240 130.5L244.8 128H252Z" fill="white"/>
<path d="M252 128V133H244.8L240 130.5L244.8 128H252Z" fill="white"/>
<path d="M257 99H262V105.6L259.5 110L257 105.6V99Z" fill="white"/>
<path fill-rule="evenodd" clip-rule="evenodd" d="M227 145.59L222 150.481L227 155.593V164H235.223L239.481 168.353L243.931 164H252V156.108L257.353 150.872L252 145.399V139H245.741L239.872 133L233.738 139H227V145.59Z" fill="white"/>
<path fill-rule="evenodd" clip-rule="evenodd" d="M227 145.59L222 150.481L227 155.593V164H235.223L239.481 168.353L243.931 164H252V156.108L257.353 150.872L252 145.399V139H245.741L239.872 133L233.738 139H227V145.59Z" fill="white"/>
<rect x="257" y="168" width="5" height="5" fill="white"/>
<path d="M227 173V168H234.2L239 170.5L234.2 173H227Z" fill="white"/>
<path d="M227 173V168H234.2L239 170.5L234.2 173H227Z" fill="white"/>
<path d="M262 164H257V156.2L259.5 151L262 156.2V164Z" fill="white"/>
<path d="M252 168V173H244.8L240 170.5L244.8 168H252Z" fill="white"/>
<path d="M252 168V173H244.8L240 170.5L244.8 168H252Z" fill="white"/>
<path d="M257 139H262V145.6L259.5 150L257 145.6V139Z" fill="white"/>
<path fill-rule="evenodd" clip-rule="evenodd" d="M227 184.59L222 189.481L227 194.593V203H235.223L239.481 207.353L243.931 203H252V195.108L257.353 189.872L252 184.399V178H245.741L239.872 172L233.738 178H227V184.59Z" fill="white"/>
<path fill-rule="evenodd" clip-rule="evenodd" d="M227 184.59L222 189.481L227 194.593V203H235.223L239.481 207.353L243.931 203H252V195.108L257.353 189.872L252 184.399V178H245.741L239.872 172L233.738 178H227V184.59Z" fill="white"/>
<path d="M257 178H262V184.6L259.5 189L257 184.6V178Z" fill="white"/>
<path fill-rule="evenodd" clip-rule="evenodd" d="M267 184.59L262 189.481L267 194.593V203H275.223L279.481 207.353L283.931 203H292V195.108L297.353 189.872L292 184.399V178H285.741L279.872 172L273.738 178H267V184.59Z" fill="white"/>
<path fill-rule="evenodd" clip-rule="evenodd" d="M267 184.59L262 189.481L267 194.593V203H275.223L279.481 207.353L283.931 203H292V195.108L297.353 189.872L292 184.399V178H285.741L279.872 172L273.738 178H267V184.59Z" fill="white"/>
<path d="M297 178H302V184.6L299.5 189L297 184.6V178Z" fill="white"/>
<path fill-rule="evenodd" clip-rule="evenodd" d="M307 184.59L302 189.481L307 194.593V203H315.223L319.481 207.353L323.931 203H332V195.108L337.353 189.872L332 184.399V178H325.741L319.872 172L313.738 178H307V184.59Z" fill="white"/>
<path fill-rule="evenodd" clip-rule="evenodd" d="M307 184.59L302 189.481L307 194.593V203H315.223L319.481 207.353L323.931 203H332V195.108L337.353 189.872L332 184.399V178H325.741L319.872 172L313.738 178H307V184.59Z" fill="white"/>
<path d="M337 178H342V184.6L339.5 189L337 184.6V178Z" fill="white"/>
<path fill-rule="evenodd" clip-rule="evenodd" d="M347 184.59L342 189.481L347 194.593V203H355.223L359.481 207.353L363.931 203H372V195.108L377.353 189.872L372 184.399V178H365.741L359.872 172L353.738 178H347V184.59Z" fill="white"/>
<path fill-rule="evenodd" clip-rule="evenodd" d="M347 184.59L342 189.481L347 194.593V203H355.223L359.481 207.353L363.931 203H372V195.108L377.353 189.872L372 184.399V178H365.741L359.872 172L353.738 178H347V184.59Z" fill="white"/>
<path d="M377 178H382V184.6L379.5 189L377 184.6V178Z" fill="white"/>
<path fill-rule="evenodd" clip-rule="evenodd" d="M267 145.59L262 150.481L267 155.593V164H275.223L279.481 168.353L283.931 164H292V156.108L297.353 150.872L292 145.399V139H285.741L279.872 133L273.738 139H267V145.59Z" fill="white"/>
<path fill-rule="evenodd" clip-rule="evenodd" d="M267 145.59L262 150.481L267 155.593V164H275.223L279.481 168.353L283.931 164H292V156.108L297.353 150.872L292 145.399V139H285.741L279.872 133L273.738 139H267V145.59Z" fill="white"/>
<rect x="297" y="168" width="5" height="5" fill="white"/>
<path d="M267 173V168H274.2L279 170.5L274.2 173H267Z" fill="white"/>
<path d="M267 173V168H274.2L279 170.5L274.2 173H267Z" fill="white"/>
<path d="M302 164H297V156.2L299.5 151L302 156.2V164Z" fill="white"/>
<path d="M292 168V173H284.8L280 170.5L284.8 168H292Z" fill="white"/>
<path d="M292 168V173H284.8L280 170.5L284.8 168H292Z" fill="white"/>
<path d="M297 139H302V145.6L299.5 150L297 145.6V139Z" fill="white"/>
<path fill-rule="evenodd" clip-rule="evenodd" d="M307 145.59L302 150.481L307 155.593V164H315.223L319.481 168.353L323.931 164H332V156.108L337.353 150.872L332 145.399V139H325.741L319.872 133L313.738 139H307V145.59Z" fill="white"/>
<path fill-rule="evenodd" clip-rule="evenodd" d="M307 145.59L302 150.481L307 155.593V164H315.223L319.481 168.353L323.931 164H332V156.108L337.353 150.872L332 145.399V139H325.741L319.872 133L313.738 139H307V145.59Z" fill="white"/>
<rect x="337" y="168" width="5" height="5" fill="white"/>
<path d="M307 173V168H314.2L319 170.5L314.2 173H307Z" fill="white"/>
<path d="M307 173V168H314.2L319 170.5L314.2 173H307Z" fill="white"/>
<path d="M342 164H337V156.2L339.5 151L342 156.2V164Z" fill="white"/>
<path d="M332 168V173H324.8L320 170.5L324.8 168H332Z" fill="white"/>
<path d="M332 168V173H324.8L320 170.5L324.8 168H332Z" fill="white"/>
<path d="M337 139H342V145.6L339.5 150L337 145.6V139Z" fill="white"/>
<path fill-rule="evenodd" clip-rule="evenodd" d="M347 145.59L342 150.481L347 155.593V164H355.223L359.481 168.353L363.931 164H372V156.108L377.353 150.872L372 145.399V139H365.741L359.872 133L353.738 139H347V145.59Z" fill="white"/>
<path fill-rule="evenodd" clip-rule="evenodd" d="M347 145.59L342 150.481L347 155.593V164H355.223L359.481 168.353L363.931 164H372V156.108L377.353 150.872L372 145.399V139H365.741L359.872 133L353.738 139H347V145.59Z" fill="white"/>
<rect x="377" y="168" width="5" height="5" fill="white"/>
<path d="M347 173V168H354.2L359 170.5L354.2 173H347Z" fill="white"/>
<path d="M347 173V168H354.2L359 170.5L354.2 173H347Z" fill="white"/>
<path d="M382 164H377V156.2L379.5 151L382 156.2V164Z" fill="white"/>
<path d="M372 168V173H364.8L360 170.5L364.8 168H372Z" fill="white"/>
<path d="M372 168V173H364.8L360 170.5L364.8 168H372Z" fill="white"/>
<path d="M377 139H382V145.6L379.5 150L377 145.6V139Z" fill="white"/>
<path fill-rule="evenodd" clip-rule="evenodd" d="M267 105.59L262 110.481L267 115.593V124H275.223L279.481 128.353L283.931 124H292V116.108L297.353 110.872L292 105.399V99H285.741L279.872 93L273.738 99H267V105.59Z" fill="white"/>
<path fill-rule="evenodd" clip-rule="evenodd" d="M267 105.59L262 110.481L267 115.593V124H275.223L279.481 128.353L283.931 124H292V116.108L297.353 110.872L292 105.399V99H285.741L279.872 93L273.738 99H267V105.59Z" fill="white"/>
<rect x="297" y="128" width="5" height="5" fill="white"/>
<path d="M267 133V128H274.2L279 130.5L274.2 133H267Z" fill="white"/>
<path d="M267 133V128H274.2L279 130.5L274.2 133H267Z" fill="white"/>
<path d="M302 124H297V116.2L299.5 111L302 116.2V124Z" fill="white"/>
<path d="M292 128V133H284.8L280 130.5L284.8 128H292Z" fill="white"/>
<path d="M292 128V133H284.8L280 130.5L284.8 128H292Z" fill="white"/>
<path d="M297 99H302V105.6L299.5 110L297 105.6V99Z" fill="white"/>
<path fill-rule="evenodd" clip-rule="evenodd" d="M307 105.59L302 110.481L307 115.593V124H315.223L319.481 128.353L323.931 124H332V116.108L337.353 110.872L332 105.399V99H325.741L319.872 93L313.738 99H307V105.59Z" fill="white"/>
<path fill-rule="evenodd" clip-rule="evenodd" d="M307 105.59L302 110.481L307 115.593V124H315.223L319.481 128.353L323.931 124H332V116.108L337.353 110.872L332 105.399V99H325.741L319.872 93L313.738 99H307V105.59Z" fill="white"/>
<rect x="337" y="128" width="5" height="5" fill="white"/>
<path d="M307 133V128H314.2L319 130.5L314.2 133H307Z" fill="white"/>
<path d="M307 133V128H314.2L319 130.5L314.2 133H307Z" fill="white"/>
<path d="M342 124H337V116.2L339.5 111L342 116.2V124Z" fill="white"/>
<path d="M332 128V133H324.8L320 130.5L324.8 128H332Z" fill="white"/>
<path d="M332 128V133H324.8L320 130.5L324.8 128H332Z" fill="white"/>
<path d="M337 99H342V105.6L339.5 110L337 105.6V99Z" fill="white"/>
<path fill-rule="evenodd" clip-rule="evenodd" d="M347 105.59L342 110.481L347 115.593V124H355.223L359.481 128.353L363.931 124H372V116.108L377.353 110.872L372 105.399V99H365.741L359.872 93L353.738 99H347V105.59Z" fill="white"/>
<path fill-rule="evenodd" clip-rule="evenodd" d="M347 105.59L342 110.481L347 115.593V124H355.223L359.481 128.353L363.931 124H372V116.108L377.353 110.872L372 105.399V99H365.741L359.872 93L353.738 99H347V105.59Z" fill="white"/>
<rect x="377" y="128" width="5" height="5" fill="white"/>
<path d="M347 133V128H354.2L359 130.5L354.2 133H347Z" fill="white"/>
<path d="M347 133V128H354.2L359 130.5L354.2 133H347Z" fill="white"/>
<path d="M382 124H377V116.2L379.5 111L382 116.2V124Z" fill="white"/>
<path d="M372 128V133H364.8L360 130.5L364.8 128H372Z" fill="white"/>
<path d="M372 128V133H364.8L360 130.5L364.8 128H372Z" fill="white"/>
<path d="M377 99H382V105.6L379.5 110L377 105.6V99Z" fill="white"/>
<path fill-rule="evenodd" clip-rule="evenodd" d="M267 65.5903L262 70.4807L267 75.5928V84H275.223L279.481 88.3532L283.931 84H292V76.1083L297.353 70.8724L292 65.3993V59H285.741L279.872 53L273.738 59H267V65.5903Z" fill="white"/>
<path fill-rule="evenodd" clip-rule="evenodd" d="M267 65.5903L262 70.4807L267 75.5928V84H275.223L279.481 88.3532L283.931 84H292V76.1083L297.353 70.8724L292 65.3993V59H285.741L279.872 53L273.738 59H267V65.5903Z" fill="white"/>
<rect x="297" y="88" width="5" height="5" fill="white"/>
<path d="M267 93V88H274.2L279 90.5L274.2 93H267Z" fill="white"/>
<path d="M267 93V88H274.2L279 90.5L274.2 93H267Z" fill="white"/>
<path d="M302 84H297V76.2L299.5 71L302 76.2V84Z" fill="white"/>
<path d="M292 88V93H284.8L280 90.5L284.8 88H292Z" fill="white"/>
<path d="M292 88V93H284.8L280 90.5L284.8 88H292Z" fill="white"/>
<path d="M297 59H302V65.6L299.5 70L297 65.6V59Z" fill="white"/>
<path fill-rule="evenodd" clip-rule="evenodd" d="M307 65.5903L302 70.4807L307 75.5928V84H315.223L319.481 88.3532L323.931 84H332V76.1083L337.353 70.8724L332 65.3993V59H325.741L319.872 53L313.738 59H307V65.5903Z" fill="white"/>
<path fill-rule="evenodd" clip-rule="evenodd" d="M307 65.5903L302 70.4807L307 75.5928V84H315.223L319.481 88.3532L323.931 84H332V76.1083L337.353 70.8724L332 65.3993V59H325.741L319.872 53L313.738 59H307V65.5903Z" fill="white"/>
<rect x="337" y="88" width="5" height="5" fill="white"/>
<path d="M307 93V88H314.2L319 90.5L314.2 93H307Z" fill="white"/>
<path d="M307 93V88H314.2L319 90.5L314.2 93H307Z" fill="white"/>
<path d="M342 84H337V76.2L339.5 71L342 76.2V84Z" fill="white"/>
<path d="M332 88V93H324.8L320 90.5L324.8 88H332Z" fill="white"/>
<path d="M332 88V93H324.8L320 90.5L324.8 88H332Z" fill="white"/>
<path d="M337 59H342V65.6L339.5 70L337 65.6V59Z" fill="white"/>
<path fill-rule="evenodd" clip-rule="evenodd" d="M347 65.5903L342 70.4807L347 75.5928V84H355.223L359.481 88.3532L363.931 84H372V76.1083L377.353 70.8724L372 65.3993V59H365.741L359.872 53L353.738 59H347V65.5903Z" fill="white"/>
<rect x="377" y="88" width="5" height="5" fill="white"/>
<path d="M347 93V88H354.2L359 90.5L354.2 93H347Z" fill="white"/>
<path d="M347 93V88H354.2L359 90.5L354.2 93H347Z" fill="white"/>
<path d="M382 84H377V76.2L379.5 71L382 76.2V84Z" fill="white"/>
<path d="M372 88V93H364.8L360 90.5L364.8 88H372Z" fill="white"/>
<path d="M372 88V93H364.8L360 90.5L364.8 88H372Z" fill="white"/>
<path d="M377 59H382V65.6L379.5 70L377 65.6V59Z" fill="white"/>
<path fill-rule="evenodd" clip-rule="evenodd" d="M347 26.5903L342 31.4807L347 36.5928V45H355.223L359.481 49.3532L363.931 45H372V37.1083L377.353 31.8724L372 26.3993V20H365.741L359.872 14L353.738 20H347V26.5903Z" fill="white"/>
<path fill-rule="evenodd" clip-rule="evenodd" d="M347 26.5903L342 31.4807L347 36.5928V45H355.223L359.481 49.3532L363.931 45H372V37.1083L377.353 31.8724L372 26.3993V20H365.741L359.872 14L353.738 20H347V26.5903Z" fill="white"/>
<rect x="377" y="9" width="5" height="5" fill="white"/>
<rect x="377" y="49" width="5" height="5" fill="white"/>
<path d="M347 14V9H354.2L359 11.5L354.2 14H347Z" fill="white"/>
<path d="M347 14V9H354.2L359 11.5L354.2 14H347Z" fill="white"/>
<path d="M347 54V49H354.2L359 51.5L354.2 54H347Z" fill="white"/>
<path d="M347 54V49H354.2L359 51.5L354.2 54H347Z" fill="white"/>
<path d="M382 45H377V37.2L379.5 32L382 37.2V45Z" fill="white"/>
<path d="M372 9V14L364.8 14L360 11.5L364.8 9H372Z" fill="white"/>
<path d="M372 9V14L364.8 14L360 11.5L364.8 9H372Z" fill="white"/>
<path d="M372 49V54H364.8L360 51.5L364.8 49H372Z" fill="white"/>
<path d="M372 49V54H364.8L360 51.5L364.8 49H372Z" fill="white"/>
<path d="M377 20H382V26.6L379.5 31L377 26.6V20Z" fill="white"/>
<ellipse cx="99.5" cy="99" rx="120.5" ry="120" fill="#009788"/>
<path d="M45.4414 104.781H47.6289L51.7402 115.748L55.8418 104.781H58.0293L52.5996 119H50.8613L45.4414 104.781ZM44.4453 104.781H46.5254L46.8867 114.273V119H44.4453V104.781ZM56.9453 104.781H59.0352V119H56.584V114.273L56.9453 104.781ZM61.2617 113.834V113.609C61.2617 112.848 61.3724 112.141 61.5938 111.49C61.8151 110.833 62.1341 110.263 62.5508 109.781C62.974 109.293 63.4883 108.915 64.0938 108.648C64.7057 108.375 65.3958 108.238 66.1641 108.238C66.9388 108.238 67.6289 108.375 68.2344 108.648C68.8464 108.915 69.3639 109.293 69.7871 109.781C70.2103 110.263 70.5326 110.833 70.7539 111.49C70.9753 112.141 71.0859 112.848 71.0859 113.609V113.834C71.0859 114.596 70.9753 115.302 70.7539 115.953C70.5326 116.604 70.2103 117.174 69.7871 117.662C69.3639 118.144 68.8496 118.521 68.2441 118.795C67.6387 119.062 66.9518 119.195 66.1836 119.195C65.4089 119.195 64.7155 119.062 64.1035 118.795C63.498 118.521 62.9837 118.144 62.5605 117.662C62.1374 117.174 61.8151 116.604 61.5938 115.953C61.3724 115.302 61.2617 114.596 61.2617 113.834ZM63.6152 113.609V113.834C63.6152 114.309 63.6641 114.758 63.7617 115.182C63.8594 115.605 64.0124 115.976 64.2207 116.295C64.429 116.614 64.696 116.865 65.0215 117.047C65.347 117.229 65.7344 117.32 66.1836 117.32C66.6198 117.32 66.9974 117.229 67.3164 117.047C67.6419 116.865 67.9089 116.614 68.1172 116.295C68.3255 115.976 68.4785 115.605 68.5762 115.182C68.6803 114.758 68.7324 114.309 68.7324 113.834V113.609C68.7324 113.141 68.6803 112.698 68.5762 112.281C68.4785 111.858 68.3223 111.484 68.1074 111.158C67.8991 110.833 67.6322 110.579 67.3066 110.396C66.9876 110.208 66.6068 110.113 66.1641 110.113C65.7214 110.113 65.3372 110.208 65.0117 110.396C64.6927 110.579 64.429 110.833 64.2207 111.158C64.0124 111.484 63.8594 111.858 63.7617 112.281C63.6641 112.698 63.6152 113.141 63.6152 113.609ZM79.5039 116.812V104H81.8672V119H79.7285L79.5039 116.812ZM72.6289 113.834V113.629C72.6289 112.828 72.7233 112.099 72.9121 111.441C73.1009 110.777 73.3743 110.208 73.7324 109.732C74.0905 109.251 74.5267 108.883 75.041 108.629C75.5553 108.368 76.1348 108.238 76.7793 108.238C77.4173 108.238 77.9772 108.362 78.459 108.609C78.9408 108.857 79.3509 109.212 79.6895 109.674C80.028 110.13 80.2982 110.676 80.5 111.314C80.7018 111.946 80.8451 112.649 80.9297 113.424V114.078C80.8451 114.833 80.7018 115.523 80.5 116.148C80.2982 116.773 80.028 117.314 79.6895 117.77C79.3509 118.225 78.9375 118.577 78.4492 118.824C77.9674 119.072 77.4043 119.195 76.7598 119.195C76.1217 119.195 75.5456 119.062 75.0312 118.795C74.5234 118.528 74.0905 118.154 73.7324 117.672C73.3743 117.19 73.1009 116.624 72.9121 115.973C72.7233 115.315 72.6289 114.602 72.6289 113.834ZM74.9824 113.629V113.834C74.9824 114.316 75.0247 114.765 75.1094 115.182C75.2005 115.598 75.3405 115.966 75.5293 116.285C75.7181 116.598 75.9622 116.845 76.2617 117.027C76.5677 117.203 76.9323 117.291 77.3555 117.291C77.8893 117.291 78.3288 117.174 78.6738 116.939C79.0189 116.705 79.2891 116.389 79.4844 115.992C79.6862 115.589 79.8229 115.139 79.8945 114.645V112.877C79.8555 112.493 79.7741 112.135 79.6504 111.803C79.5332 111.471 79.3737 111.181 79.1719 110.934C78.9701 110.68 78.7194 110.484 78.4199 110.348C78.127 110.204 77.7786 110.133 77.375 110.133C76.9453 110.133 76.5807 110.224 76.2812 110.406C75.9818 110.589 75.7344 110.839 75.5391 111.158C75.3503 111.477 75.2103 111.848 75.1191 112.271C75.028 112.695 74.9824 113.147 74.9824 113.629ZM90.6855 116.51V108.434H93.0488V119H90.8223L90.6855 116.51ZM91.0176 114.312L91.8086 114.293C91.8086 115.003 91.7305 115.657 91.5742 116.256C91.418 116.848 91.1771 117.366 90.8516 117.809C90.526 118.245 90.1094 118.587 89.6016 118.834C89.0938 119.075 88.485 119.195 87.7754 119.195C87.2611 119.195 86.7891 119.12 86.3594 118.971C85.9297 118.821 85.5586 118.59 85.2461 118.277C84.9401 117.965 84.7025 117.558 84.5332 117.057C84.3639 116.555 84.2793 115.956 84.2793 115.26V108.434H86.6328V115.279C86.6328 115.663 86.6784 115.986 86.7695 116.246C86.8607 116.5 86.9844 116.705 87.1406 116.861C87.2969 117.018 87.4792 117.128 87.6875 117.193C87.8958 117.258 88.1172 117.291 88.3516 117.291C89.0221 117.291 89.5495 117.161 89.9336 116.9C90.3242 116.633 90.6009 116.275 90.7637 115.826C90.9329 115.377 91.0176 114.872 91.0176 114.312ZM97.9805 104V119H95.6172V104H97.9805ZM109.904 119H106.867L106.887 117.057H109.904C110.783 117.057 111.519 116.865 112.111 116.48C112.71 116.096 113.16 115.546 113.459 114.83C113.765 114.114 113.918 113.261 113.918 112.271V111.5C113.918 110.732 113.83 110.051 113.654 109.459C113.485 108.867 113.231 108.368 112.893 107.965C112.561 107.561 112.15 107.255 111.662 107.047C111.18 106.839 110.624 106.734 109.992 106.734H106.809V104.781H109.992C110.936 104.781 111.799 104.941 112.58 105.26C113.361 105.572 114.035 106.025 114.602 106.617C115.174 107.21 115.614 107.919 115.92 108.746C116.226 109.573 116.379 110.497 116.379 111.52V112.271C116.379 113.294 116.226 114.218 115.92 115.045C115.614 115.872 115.174 116.581 114.602 117.174C114.029 117.76 113.345 118.212 112.551 118.531C111.763 118.844 110.881 119 109.904 119ZM108.225 104.781V119H105.773V104.781H108.225ZM121.125 108.434V119H118.762V108.434H121.125ZM118.605 105.66C118.605 105.302 118.723 105.006 118.957 104.771C119.198 104.531 119.53 104.41 119.953 104.41C120.37 104.41 120.699 104.531 120.939 104.771C121.18 105.006 121.301 105.302 121.301 105.66C121.301 106.012 121.18 106.305 120.939 106.539C120.699 106.773 120.37 106.891 119.953 106.891C119.53 106.891 119.198 106.773 118.957 106.539C118.723 106.305 118.605 106.012 118.605 105.66ZM130.471 108.434H132.609V118.707C132.609 119.658 132.408 120.465 132.004 121.129C131.6 121.793 131.037 122.298 130.314 122.643C129.592 122.994 128.755 123.17 127.805 123.17C127.401 123.17 126.952 123.111 126.457 122.994C125.969 122.877 125.493 122.688 125.031 122.428C124.576 122.174 124.195 121.839 123.889 121.422L124.992 120.035C125.37 120.484 125.786 120.813 126.242 121.021C126.698 121.23 127.176 121.334 127.678 121.334C128.218 121.334 128.677 121.233 129.055 121.031C129.439 120.836 129.735 120.546 129.943 120.162C130.152 119.778 130.256 119.309 130.256 118.756V110.826L130.471 108.434ZM123.293 113.834V113.629C123.293 112.828 123.391 112.099 123.586 111.441C123.781 110.777 124.061 110.208 124.426 109.732C124.79 109.251 125.233 108.883 125.754 108.629C126.275 108.368 126.864 108.238 127.521 108.238C128.205 108.238 128.788 108.362 129.27 108.609C129.758 108.857 130.165 109.212 130.49 109.674C130.816 110.13 131.07 110.676 131.252 111.314C131.441 111.946 131.581 112.649 131.672 113.424V114.078C131.587 114.833 131.444 115.523 131.242 116.148C131.04 116.773 130.773 117.314 130.441 117.77C130.109 118.225 129.699 118.577 129.211 118.824C128.729 119.072 128.16 119.195 127.502 119.195C126.857 119.195 126.275 119.062 125.754 118.795C125.24 118.528 124.797 118.154 124.426 117.672C124.061 117.19 123.781 116.624 123.586 115.973C123.391 115.315 123.293 114.602 123.293 113.834ZM125.646 113.629V113.834C125.646 114.316 125.692 114.765 125.783 115.182C125.881 115.598 126.027 115.966 126.223 116.285C126.424 116.598 126.678 116.845 126.984 117.027C127.297 117.203 127.665 117.291 128.088 117.291C128.641 117.291 129.094 117.174 129.445 116.939C129.803 116.705 130.077 116.389 130.266 115.992C130.461 115.589 130.598 115.139 130.676 114.645V112.877C130.637 112.493 130.555 112.135 130.432 111.803C130.314 111.471 130.155 111.181 129.953 110.934C129.751 110.68 129.497 110.484 129.191 110.348C128.885 110.204 128.524 110.133 128.107 110.133C127.684 110.133 127.316 110.224 127.004 110.406C126.691 110.589 126.434 110.839 126.232 111.158C126.037 111.477 125.891 111.848 125.793 112.271C125.695 112.695 125.646 113.147 125.646 113.629ZM137.57 108.434V119H135.207V108.434H137.57ZM135.051 105.66C135.051 105.302 135.168 105.006 135.402 104.771C135.643 104.531 135.975 104.41 136.398 104.41C136.815 104.41 137.144 104.531 137.385 104.771C137.626 105.006 137.746 105.302 137.746 105.66C137.746 106.012 137.626 106.305 137.385 106.539C137.144 106.773 136.815 106.891 136.398 106.891C135.975 106.891 135.643 106.773 135.402 106.539C135.168 106.305 135.051 106.012 135.051 105.66ZM144.992 108.434V110.152H139.035V108.434H144.992ZM140.754 105.846H143.107V116.08C143.107 116.406 143.153 116.656 143.244 116.832C143.342 117.001 143.475 117.115 143.645 117.174C143.814 117.232 144.012 117.262 144.24 117.262C144.403 117.262 144.559 117.252 144.709 117.232C144.859 117.213 144.979 117.193 145.07 117.174L145.08 118.971C144.885 119.029 144.657 119.081 144.396 119.127C144.143 119.173 143.85 119.195 143.518 119.195C142.977 119.195 142.499 119.101 142.082 118.912C141.665 118.717 141.34 118.401 141.105 117.965C140.871 117.529 140.754 116.949 140.754 116.227V105.846ZM152.766 116.881V111.842C152.766 111.464 152.697 111.139 152.561 110.865C152.424 110.592 152.215 110.38 151.936 110.23C151.662 110.081 151.317 110.006 150.9 110.006C150.516 110.006 150.184 110.071 149.904 110.201C149.624 110.331 149.406 110.507 149.25 110.729C149.094 110.95 149.016 111.201 149.016 111.48H146.672C146.672 111.064 146.773 110.66 146.975 110.27C147.176 109.879 147.469 109.531 147.854 109.225C148.238 108.919 148.697 108.678 149.23 108.502C149.764 108.326 150.363 108.238 151.027 108.238C151.822 108.238 152.525 108.372 153.137 108.639C153.755 108.906 154.24 109.309 154.592 109.85C154.95 110.383 155.129 111.054 155.129 111.861V116.559C155.129 117.04 155.161 117.473 155.227 117.857C155.298 118.235 155.399 118.564 155.529 118.844V119H153.117C153.007 118.746 152.919 118.424 152.854 118.033C152.795 117.636 152.766 117.252 152.766 116.881ZM153.107 112.574L153.127 114.029H151.438C151.001 114.029 150.617 114.072 150.285 114.156C149.953 114.234 149.676 114.352 149.455 114.508C149.234 114.664 149.068 114.853 148.957 115.074C148.846 115.296 148.791 115.546 148.791 115.826C148.791 116.106 148.856 116.363 148.986 116.598C149.117 116.826 149.305 117.005 149.553 117.135C149.807 117.265 150.113 117.33 150.471 117.33C150.952 117.33 151.372 117.232 151.73 117.037C152.095 116.835 152.382 116.591 152.59 116.305C152.798 116.012 152.909 115.735 152.922 115.475L153.684 116.52C153.605 116.786 153.472 117.073 153.283 117.379C153.094 117.685 152.847 117.978 152.541 118.258C152.242 118.531 151.88 118.756 151.457 118.932C151.04 119.107 150.559 119.195 150.012 119.195C149.322 119.195 148.706 119.059 148.166 118.785C147.626 118.505 147.202 118.131 146.896 117.662C146.59 117.187 146.438 116.65 146.438 116.051C146.438 115.491 146.542 114.996 146.75 114.566C146.965 114.13 147.277 113.766 147.688 113.473C148.104 113.18 148.612 112.958 149.211 112.809C149.81 112.652 150.493 112.574 151.262 112.574H153.107ZM160.109 104V119H157.746V104H160.109Z" fill="white"/>
<path d="M82.1143 82.7432H72.8613V77.8848H82.1143C83.7256 77.8848 85.0277 77.6243 86.0205 77.1035C87.0133 76.5827 87.7376 75.8665 88.1934 74.9551C88.6654 74.0273 88.9014 72.9694 88.9014 71.7812C88.9014 70.6582 88.6654 69.6084 88.1934 68.6318C87.7376 67.639 87.0133 66.8415 86.0205 66.2393C85.0277 65.637 83.7256 65.3359 82.1143 65.3359H74.7412V96H68.6133V60.4531H82.1143C84.8649 60.4531 87.2005 60.9414 89.1211 61.918C91.0579 62.8783 92.5309 64.2129 93.54 65.9219C94.5492 67.6146 95.0537 69.5514 95.0537 71.7324C95.0537 74.0273 94.5492 75.9967 93.54 77.6406C92.5309 79.2845 91.0579 80.5459 89.1211 81.4248C87.2005 82.3037 84.8649 82.7432 82.1143 82.7432ZM110.679 65.1895L100.059 96H93.6377L107.017 60.4531H111.118L110.679 65.1895ZM119.565 96L108.921 65.1895L108.457 60.4531H112.583L126.011 96H119.565ZM119.053 82.8164V87.6748H99.7168V82.8164H119.053ZM136.533 60.4531V96H130.405V60.4531H136.533Z" fill="white"/>
</g>
</g>
<defs>
<filter id="filter0_d_228_2680" x="0" y="0" width="392" height="192" filterUnits="userSpaceOnUse" color-interpolation-filters="sRGB">
<feFlood flood-opacity="0" result="BackgroundImageFix"/>
<feColorMatrix in="SourceAlpha" type="matrix" values="0 0 0 0 0 0 0 0 0 0 0 0 0 0 0 0 0 0 127 0" result="hardAlpha"/>
<feOffset dy="1"/>
<feGaussianBlur stdDeviation="5"/>
<feComposite in2="hardAlpha" operator="out"/>
<feColorMatrix type="matrix" values="0 0 0 0 0 0 0 0 0 0 0 0 0 0 0 0 0 0 0.1 0"/>
<feBlend mode="normal" in2="BackgroundImageFix" result="effect1_dropShadow_228_2680"/>
<feBlend mode="normal" in="SourceGraphic" in2="effect1_dropShadow_228_2680" result="shape"/>
</filter>
<clipPath id="clip0_228_2680">
<rect x="10" y="9" width="372" height="172" rx="10" fill="white"/>
</clipPath>
</defs>
</svg>
